<?xml version="1.0" encoding="UTF-8"?> <!-- Generator: Adobe Illustrator 24.0.0, SVG Export Plug-In . SVG Version: 6.00 Build 0) --> <svg xmlns="http://www.w3.org/2000/svg" xmlns:xlink="http://www.w3.org/1999/xlink" version="1.1" id="e6231ec2-a9f6-4575-8eca-cc3c0040981d" x="0px" y="0px" viewBox="0 0 300 200" style="enable-background:new 0 0 300 200;" xml:space="preserve"> <style type="text/css"> .st0{fill:#E6E6E6;} .st1{fill:#869199;} .st2{fill:#CCD6B8;} .st3{fill:#8EB2A6;} .st4{fill:#CC5559;} .st5{fill:#F6F7F4;} .st6{fill:#FFB8B8;} .st7{fill:#35353D;} .st8{fill:#666666;} </style> <title>manage_chats</title> <path class="st0" d="M173.7,35.2c-0.6,0-1.3,0-1.9,0v-0.6c0.6,0,1.3,0,1.9,0V35.2z"></path> <path class="st1" d="M171.8,147.2c-0.9,0-1.7,0-2.5-0.1v-0.6c1.3,0.1,2.5,0.1,3.8,0v0.6C172.7,147.2,172.2,147.2,171.8,147.2z M177,147l-0.1-0.6c1.3-0.1,2.5-0.3,3.8-0.5l0.1,0.6C179.5,146.7,178.2,146.9,177,147z M165.4,146.9c-1.3-0.1-2.6-0.3-3.8-0.6 l0.1-0.6c1.2,0.2,2.5,0.4,3.8,0.6L165.4,146.9z M184.6,145.8l-0.1-0.6c1.2-0.3,2.5-0.6,3.7-1l0.2,0.6 C187.1,145.2,185.8,145.5,184.6,145.8z M157.8,145.5c-1.2-0.3-2.5-0.7-3.7-1.1l0.2-0.6c1.2,0.4,2.4,0.8,3.7,1.1L157.8,145.5z M192,143.5l-0.2-0.6c1.2-0.5,2.4-1,3.5-1.5l0.3,0.6C194.3,142.6,193.1,143.1,192,143.5L192,143.5z M150.5,143.1 c-1.2-0.5-2.4-1-3.5-1.6l0.3-0.6c1.1,0.6,2.3,1.1,3.5,1.6L150.5,143.1z M198.9,140.3l-0.3-0.6c1.1-0.6,2.2-1.3,3.3-2l0.3,0.5 C201.2,139,200.1,139.7,198.9,140.3z M143.6,139.7c-1.1-0.6-2.2-1.3-3.3-2.1l0.4-0.5c1,0.7,2.1,1.4,3.2,2L143.6,139.7z M205.4,136.1 l-0.4-0.5c1-0.8,2-1.6,3-2.4l0.4,0.5C207.5,134.5,206.4,135.3,205.4,136.1L205.4,136.1z M137.2,135.3c-1-0.8-2-1.6-3-2.5l0.4-0.5 c0.9,0.8,1.9,1.7,2.9,2.4L137.2,135.3z M211.3,131.1l-0.4-0.5c0.9-0.9,1.8-1.8,2.6-2.8l0.5,0.4C213.1,129.2,212.2,130.2,211.3,131.1 z M131.5,130.2c-0.9-0.9-1.8-1.9-2.6-2.9l0.5-0.4c0.8,1,1.7,1.9,2.6,2.8L131.5,130.2z M216.4,125.3l-0.5-0.4c0.8-1,1.5-2,2.2-3.1 l0.5,0.4C217.9,123.3,217.2,124.3,216.4,125.3L216.4,125.3z M126.5,124.3c-0.8-1-1.5-2.1-2.2-3.2l0.5-0.3c0.7,1.1,1.4,2.1,2.2,3.1 L126.5,124.3z M220.7,118.8l-0.5-0.3c0.6-1.1,1.2-2.2,1.8-3.4l0.6,0.3C221.9,116.5,221.3,117.7,220.7,118.8L220.7,118.8z M122.3,117.7c-0.6-1.1-1.2-2.3-1.7-3.4l0.6-0.3c0.5,1.1,1.1,2.3,1.7,3.4L122.3,117.7z M224,111.9l-0.6-0.2c0.5-1.2,0.9-2.4,1.3-3.6 l0.6,0.2C225,109.5,224.5,110.7,224,111.9z M119.1,110.7c-0.5-1.2-0.9-2.4-1.2-3.7l0.6-0.2c0.4,1.2,0.8,2.4,1.2,3.6L119.1,110.7z M226.4,104.5l-0.6-0.2c0.3-1.2,0.6-2.5,0.8-3.7l0.6,0.1C227,102,226.7,103.3,226.4,104.5z M116.9,103.3c-0.3-1.2-0.5-2.5-0.7-3.8 l0.6-0.1c0.2,1.3,0.4,2.5,0.7,3.7L116.9,103.3z M227.8,96.9l-0.6-0.1c0.1-1.3,0.2-2.5,0.3-3.8h0.6C228,94.4,227.9,95.7,227.8,96.9z M115.7,95.7c-0.1-1.3-0.2-2.6-0.2-3.9h0.6c0,1.3,0.1,2.5,0.2,3.8L115.7,95.7z M227.4,89.3c0-1.3-0.1-2.5-0.2-3.8l0.6-0.1 c0.1,1.3,0.2,2.6,0.2,3.8L227.4,89.3z M226.7,81.7c-0.2-1.3-0.5-2.5-0.8-3.7l0.6-0.1c0.3,1.2,0.6,2.5,0.8,3.8L226.7,81.7z M224.9,74.3c-0.4-1.2-0.8-2.4-1.3-3.6l0.6-0.2c0.5,1.2,0.9,2.4,1.3,3.6L224.9,74.3z M222.2,67.2c-0.5-1.1-1.1-2.3-1.7-3.4l0.6-0.3 c0.6,1.1,1.2,2.3,1.8,3.4L222.2,67.2z M218.4,60.4c-0.7-1.1-1.4-2.1-2.2-3.1l0.5-0.4c0.8,1,1.5,2.1,2.2,3.2L218.4,60.4z M213.9,54.3 c-0.8-1-1.7-1.9-2.6-2.8l0.4-0.4c0.9,0.9,1.8,1.9,2.6,2.8L213.9,54.3z M208.5,48.9c-1-0.8-1.9-1.6-3-2.4l0.4-0.5c1,0.8,2,1.6,3,2.4 L208.5,48.9z M202.4,44.3c-1.1-0.7-2.2-1.4-3.3-2l0.3-0.5c1.1,0.6,2.2,1.3,3.3,2L202.4,44.3z M195.8,40.5c-1.1-0.5-2.3-1.1-3.5-1.5 l0.2-0.6c1.2,0.5,2.4,1,3.5,1.5L195.8,40.5z M188.7,37.7c-1.2-0.4-2.4-0.7-3.7-1l0.1-0.6c1.2,0.3,2.5,0.7,3.7,1L188.7,37.7z M181.3,35.9c-1.2-0.2-2.5-0.4-3.8-0.5l0.1-0.6c1.3,0.1,2.6,0.3,3.8,0.5L181.3,35.9z"></path> <path class="st0" d="M116.3,87.9h-0.6c0-0.6,0.1-1.3,0.1-1.9l0.6,0.1C116.3,86.7,116.3,87.3,116.3,87.9z"></path> <polygon class="st2" points="220,199.4 60.4,199.4 60.4,128.2 140.2,164.1 220,128.2 "></polygon> <polygon class="st3" points="60.4,128.2 220,128.2 140.4,169.3 "></polygon> <path class="st2" d="M20.9,199.3c-0.1-0.1-1.8-3-2.4-8.9c-0.5-5.4-0.2-14.6,4.6-27.5c9-24.2-2.1-43.9-2.2-44.1l0.5-0.3 c0,0,2.9,5,4.6,13c2.2,10.5,1.4,21.5-2.3,31.7c-9,24.2-2.3,35.7-2.2,35.9L20.9,199.3z"></path> <ellipse class="st4" cx="17.4" cy="113.2" rx="4.1" ry="4.1"></ellipse> <ellipse class="st4" cx="30.3" cy="128.5" rx="4.1" ry="4.1"></ellipse> <ellipse class="st4" cx="21.5" cy="138.6" rx="4.1" ry="4.1"></ellipse> <ellipse class="st4" cx="32.2" cy="147.2" rx="4.1" ry="4.1"></ellipse> <ellipse class="st4" cx="18.3" cy="160.4" rx="4.1" ry="4.1"></ellipse> <path class="st2" d="M23.4,199.4c0,0-4.1-10.1,8.2-17.7L23.4,199.4z"></path> <path class="st2" d="M18.3,199.2c0,0-1.9-10.8-16.3-10.7L18.3,199.2z"></path> <path class="st3" d="M88,43.8c0-8.7,2.9-17.1,8.2-23.9c-21.2-3.1-41,11.6-44.1,32.9s11.6,41.1,32.8,44.2c5.5,0.8,11.1,0.4,16.4-1.1 c7.4,3.2,15.4,4.5,23.4,3.7l-12.4-8.8c3.4-2.3,6.4-5.1,8.9-8.3C102.2,79.5,88,63,88,43.8z"></path> <path class="st2" d="M176.2,39.6c0-21.5-17.4-39-38.9-39c-12,0-23.3,5.5-30.7,15c21.2,3.1,35.9,22.9,32.8,44.3 c-1,6.6-3.7,12.9-7.8,18.2c5.5,0.8,11.1,0.4,16.4-1.1c7.4,3.2,15.4,4.5,23.4,3.7L159,72C169.8,64.7,176.2,52.6,176.2,39.6z"></path> <path class="st5" d="M101.3,17.6C88.1,34.5,91.1,59,108,72.3c5.3,4.1,11.6,6.8,18.2,7.8c13.2-16.9,10.2-41.5-6.7-54.7 C114.3,21.3,108,18.6,101.3,17.6z"></path> <rect y="199.4" class="st2" width="300" height="0.6"></rect> <path class="st6" d="M254.8,50.9L253,63.3l-21.4,14.5c0,0-11.3,5.4-10.6,8.8c0.6,3,9.3,2.6,12.1-2L258.7,73l8.6-17L254.8,50.9z"></path> <polygon class="st6" points="255,177 255.9,190.3 265.1,189.6 263.5,177 "></polygon> <path class="st7" d="M257.5,186.2c0,0-1.3-4.7-2.5-4.4l-1.9,3.5c0,0-8.5,7.9-11.1,8.2c0,0-8.2,2.5,0,6.3h9.5c0,0,6.3-0.3,7.6,0 c1.3,0.3,8.5,0.3,8.9-1.6c0.3-1.9-0.9-5.7-0.9-5.7s-1.2-9.3-2.5-7.5c-0.7,1-1.4,1.9-2.3,2.8L257.5,186.2z"></path> <polygon class="st6" points="278.7,177.1 279.6,190.4 288.8,189.8 287.2,177.1 "></polygon> <path class="st7" d="M281.2,186.3c0,0-1.3-4.7-2.5-4.4l-1.9,3.5c0,0-8.5,7.9-11.1,8.2c0,0-8.2,2.5,0,6.3h9.5c0,0,6.3-0.6,7.6-0.3 c1.3,0.3,8.5,0.3,8.9-1.6c0.3-1.9-0.9-5.4-0.9-5.4s-1.2-9.3-2.5-7.5c-0.7,1-1.4,1.9-2.3,2.8L281.2,186.3z"></path> <path class="st7" d="M242.6,95.4l-1.6,2.2v4.4l10.1,37.7l1.9,8.2c0,0,0,31.7,1.9,31.7s10.4,0.9,10.4-0.9c0-1.9-0.6-45-0.6-45 l8.5,16.1c0,0,3.8,28.6,5.1,28.9c1.3,0.3,10.1,0,10.7-1.9l-1.9-18c0,0,0.3-20.2-5.1-24.7c0,0-0.9-5.4-1.9-7.6s-2.5-3.5-1.6-5.1 c0.9-1.6-1.3-19-1.3-19s0.6-5.4-0.6-7C275.5,93.8,242.6,95.4,242.6,95.4z"></path> <ellipse class="st6" cx="262.8" cy="13.6" rx="9.8" ry="9.8"></ellipse> <path class="st6" d="M269,19.6l-0.6,6.3l2.5,2.2l-16.1,7.6c4-6.8,5.1-13,3.2-17.4L269,19.6z"></path> <path class="st3" d="M258,29.1c0,0-2.5,5.1,0.6,3.8l9.8-7c0,0,10.7,4.1,14.5,8.9l-3.2,33.6l-2.5,23.7c0,0,1.6,2.8,1.3,3.2 c-0.3,0.4-0.6-0.3-0.3,0.6c0.3,0.9,1.3,0,0.3,0.9c-1,0.9-1.9,0-0.9,0.9s0,1.3,0,1.3s-1.3-7.6-12.3-1.9c-11.1,5.7-15.8,7.3-24,0.3 l9.5-36.1l0.8-13.6c0.3-4.5,1.1-9,2.4-13.4c0.7-2.3,2-4.7,4.1-5.9L258,29.1L258,29.1z"></path> <path class="st6" d="M274.9,56.7l4.7,11.7l-11.1,23.4c0,0-2.5,2.8-0.9,6.3c0.8,1.9,1.8,3.7,2.8,5.4c0,0,2.8-1.3,2.8-6.6l16.1-23.1 l-1.3-19L274.9,56.7z"></path> <path class="st3" d="M274.2,35.9c0,0-4.4,4.4-2.5,11.4s3.5,12.3,3.5,12.3s7.6-5.7,13.9-2.2c0,0-0.9-20.5-6.3-22.4 C277.4,33,274.2,35.9,274.2,35.9z"></path> <path class="st7" d="M270.9,5.2c0,0-3-6.5-8.7-5s-9,3.7-9.2,6s0.1,5.6,0.1,5.6s0.6-4.6,4.6-3.6c4,1,10.2,0.2,10.2,0.2l1,9 c0,0,1.7-1.8,2.9-0.8C273.1,17.7,274.9,7.2,270.9,5.2z"></path> <path class="st8" d="M221.3,75.9L221.3,75.9l5.8-1.4c0.6-0.1,1.2,0.2,1.4,0.7l6,12.4c0.2,0.5,0,1.1-0.5,1.4c-0.1,0-0.1,0-0.2,0.1 l-5.9,1.7c-0.7,0.2-1.4-0.1-1.6-0.8l-3.8-8.9l-0.1,0.1l-0.7-1.7l0.1-0.1l-1.1-2.5c-0.2-0.4,0-0.9,0.4-1 C221.2,75.9,221.3,75.9,221.3,75.9z"></path> <path class="st4" d="M226.5,75l0.7-0.2c0.4-0.1,0.8,0.1,1,0.5l5.8,12.3c0.1,0.3,0,0.6-0.3,0.7h-0.1l-5.9,1.8 c-0.3,0.1-0.7-0.1-0.9-0.4l-5.5-12.8c-0.1-0.3,0-0.7,0.3-0.8h0.1l0.6-0.2c0.1,0,0.3,0,0.3,0.1l0,0c0.1,0.1,0.2,0.2,0.3,0.1l3.1-0.7 C226.4,75.5,226.5,75.3,226.5,75L226.5,75z"></path> </svg> 