<?xml version="1.0" encoding="UTF-8"?> <!-- Generator: Adobe Illustrator 24.0.0, SVG Export Plug-In . SVG Version: 6.00 Build 0) --> <svg xmlns="http://www.w3.org/2000/svg" xmlns:xlink="http://www.w3.org/1999/xlink" version="1.1" id="b66c9c51-8109-402d-a3f9-100a5bb3d153" x="0px" y="0px" viewBox="0 0 300 200" style="enable-background:new 0 0 300 200;" xml:space="preserve"> <style type="text/css"> .st0{fill:#CCD6B8;} .st1{opacity:0.9;fill:#FFFFFF;enable-background:new ;} .st2{fill:#E6E6E6;} .st3{fill:#CC5559;} .st4{fill:#666666;} .st5{fill:#FFFFFF;} .st6{fill:#FFB8B8;} .st7{fill:#35353D;} .st8{fill:#F4FBFE;} .st9{fill:#869199;} .st10{fill:#8EB2A6;} .st11{fill:#A0616A;} .st12{opacity:0.2;enable-background:new ;} </style> <title>work_together</title> <rect x="61.9" y="10.1" class="st0" width="238.1" height="165.5"></rect> <rect x="82.9" y="30.1" class="st1" width="85.9" height="87.8"></rect> <rect x="201" y="30.1" class="st1" width="85.9" height="106.6"></rect> <ellipse class="st2" cx="39.2" cy="198.1" rx="39.2" ry="1.9"></ellipse> <g> <rect x="61.8" class="st3" width="238.1" height="10.1"></rect> <ellipse class="st2" cx="69.3" cy="5.1" rx="1.9" ry="1.9"></ellipse> <ellipse class="st2" cx="76.4" cy="5.1" rx="1.9" ry="1.9"></ellipse> <ellipse class="st2" cx="83.5" cy="5.1" rx="1.9" ry="1.9"></ellipse> </g> <path class="st4" d="M268,58.7h-0.5V44.5c0-4.5-3.7-8.2-8.2-8.2l0,0H229c-4.5,0-8.2,3.7-8.2,8.2l0,0v77.8c0,4.5,3.7,8.2,8.2,8.2l0,0 h30.2c4.5,0,8.2-3.7,8.2-8.2l0,0V68.8h0.5V58.7z"></path> <path class="st5" d="M259.2,38.4h-3.9c0.6,1.5-0.1,3.2-1.6,3.8c-0.4,0.1-0.7,0.2-1.1,0.2h-17.3c-1.6,0-2.9-1.3-2.9-2.9 c0-0.4,0.1-0.8,0.2-1.1h-3.7c-3.4,0-6.1,2.7-6.1,6.1l0,0v77.7c0,3.4,2.7,6.1,6.1,6.1l0,0h30.3c3.4,0,6.1-2.7,6.1-6.1l0,0V44.5 C265.4,41.1,262.7,38.4,259.2,38.4L259.2,38.4z"></path> <rect x="96.1" y="83.9" class="st2" width="59.7" height="2.7"></rect> <rect x="96.1" y="91.4" class="st2" width="59.7" height="2.7"></rect> <rect x="96.1" y="99" class="st2" width="59.7" height="2.7"></rect> <rect x="96.1" y="106.5" class="st3" width="59.7" height="2.7"></rect> <rect x="226.9" y="88.8" class="st2" width="34.8" height="2.7"></rect> <rect x="226.9" y="97.2" class="st2" width="34.8" height="2.7"></rect> <rect x="226.9" y="105.5" class="st2" width="34.8" height="2.7"></rect> <rect x="234.3" y="54.6" class="st3" width="19.4" height="19.3"></rect> <path class="st6" d="M43.2,156.6l-1.1,0.6c0,0-4.2,2-3,3c1.2,1.1,4.7-1.1,4.7-1.1l0.7-0.9L43.2,156.6z"></path> <polygon class="st7" points="74.4,156.4 71.2,178.5 66.2,193.9 63.5,192.7 66,171.6 58.8,165.6 59.4,156.6 "></polygon> <path class="st7" d="M63.1,193.3c0,0,3-1.5,3.2,0.7l-0.3,2.3c0,0,1.1,4.1-2.4,3.2s-1.1-3.5-1.1-3.5L63.1,193.3z"></path> <path class="st7" d="M61.2,163.6l-2.3,2c0,0,0,12.1,1.6,13.8c1.6,1.8,11.8,10.8,12.1,11.2s2-3.5,2-3.5l-9.7-11.2l0.7-7L61.2,163.6z"></path> <path class="st7" d="M73.4,186.5c0,0,2.9-0.6,2.9,1.4c0,1.5,0.1,3.1,0.3,4.6c0,0,0.7,6.2-1.6,5.3c-2.3-0.9-3.2-7.1-3.2-7.1 c0.2-0.6,0.6-1,1.1-1.2C73.6,189.2,73.4,186.5,73.4,186.5z"></path> <polygon class="st6" points="64.5,130.1 65.1,136.6 63.6,139.2 59.7,135.4 59.4,130.4 "></polygon> <ellipse class="st6" cx="61.3" cy="128" rx="4.2" ry="4.2"></ellipse> <polygon class="st8" points="63.1,136.5 64.9,131.3 68.1,134.8 74,157.4 69.5,160.1 67.6,157.2 67.2,160.9 58.5,159.2 57.7,135.4 59.5,132.8 "></polygon> <polygon class="st9" points="60.6,161.6 59.5,133 57.3,134.7 53,137.5 55.8,147.7 56.7,158.3 "></polygon> <polygon class="st9" points="54.2,137.7 53,137.5 49.4,148 42.3,156.9 44.9,159.7 53.2,151.8 56.2,145.1 "></polygon> <path class="st6" d="M73.6,153.9l-0.2,1.2c0,0-1.1,4.5,0.4,4.2c1.7-0.3,2-4.3,2-4.3l-0.2-1.1H73.6z"></path> <polygon class="st9" points="64.6,131.1 73.4,134.5 72.4,145.1 74.5,156.9 72.4,159.2 64.5,132.5 "></polygon> <path class="st7" d="M61.5,120.8l1.2-0.7v0.7l0.9-0.4v1c0,0,3.1,2.3,2.6,5c-0.6,2.7-0.7,2.9-0.7,2.9s-0.8-5.2-3.9-4.3 s-3.4,1-4.2,3.3l-0.2,1C57.2,129.3,53.6,121.2,61.5,120.8z"></path> <polygon class="st9" points="72.2,134.5 73.6,134.5 76,146.9 76,157.7 73.1,157.2 70.7,140.9 "></polygon> <rect x="1.3" y="160.7" class="st3" width="52.6" height="36.4"></rect> <path class="st5" d="M27.6,167.8c-6.1,0-11.1,5-11.1,11.1c0,6.1,5,11.1,11.1,11.1s11.1-5,11.1-11.1 C38.7,172.8,33.8,167.9,27.6,167.8z M27.6,171.2c1.9,0,3.3,1.4,3.3,3.3c0,1.9-1.4,3.3-3.3,3.3c-1.9,0-3.3-1.4-3.3-3.3l0,0 C24.3,172.7,25.8,171.2,27.6,171.2z M27.6,187.2c-2.7,0-5.2-1.3-6.7-3.5c0-2.2,4.4-3.4,6.7-3.4s6.7,1.2,6.7,3.4 C32.8,185.8,30.3,187.2,27.6,187.2z"></path> <rect x="96.2" y="40.2" class="st2" width="59.5" height="33.9"></rect> <g> <ellipse class="st2" cx="283.8" cy="182.4" rx="15.4" ry="2.2"></ellipse> <ellipse class="st2" cx="129.9" cy="182.5" rx="15.4" ry="2.2"></ellipse> <rect x="257.6" y="156.9" class="st2" width="5.8" height="5.8"></rect> <rect x="248.3" y="156.9" class="st3" width="5.8" height="5.8"></rect> <rect x="239" y="156.9" class="st10" width="5.8" height="5.8"></rect> <rect x="229.5" y="156.9" class="st9" width="5.8" height="5.8"></rect> <rect x="220.2" y="156.9" class="st4" width="5.8" height="5.8"></rect> <path class="st11" d="M116.3,114.6l-0.2,0.5l-0.7-3.7c0,0-1-4,1-4s1.5,4,1.5,4v2.7L116.3,114.6z"></path> <path class="st11" d="M149.2,114.1l0.2,0.5l0.7-3.7c0,0,1-4-1-4c-2,0-1.5,4-1.5,4v2.7L149.2,114.1z"></path> <polygon class="st7" points="127.3,142.6 124.3,161.1 125.8,179 129.3,177.5 128.8,164.1 132.3,153.4 133,166.1 131.5,179.3 136,179.8 139.4,152.6 139.1,143.4 "></polygon> <path class="st7" d="M127.3,176.8l-1.7,2.7v6.1c0,0.4,0.3,0.7,0.6,0.7c0.9,0.1,2.3,0.2,2.9-0.6c0.7-1.2,0.2-4,0.2-4s1-2,0.5-3.5 c-0.5-1.5-1-1.7-1-1.7L127.3,176.8z"></path> <path class="st7" d="M134.8,179.3l0.5,0.7c0,0,0.7,0.7,0.2,1.2c-0.4,0.4-0.7,0.8-1,1.2c0,0-2.7,0.7-2.7-0.2V179L134.8,179.3z"></path> <ellipse class="st11" cx="133.9" cy="119" rx="3.3" ry="3.3"></ellipse> <polygon class="st11" points="131.7,120 131.4,124.8 135.9,125 135.7,120.3 "></polygon> <path class="st10" d="M136.5,125.2l-0.7-1.7c0,0-3.3-1.3-4.3,0L131,125l-4-1l-2.2,5l2,14.2c0,0,5.2,6.7,12.2,0.2l2-13.5l-1.5-5.2 L136.5,125.2z"></path> <polygon class="st10" points="139.1,125.7 139.6,124.7 144.6,121.7 147.7,112.6 150,113.7 147.4,124.4 140.1,131.2 "></polygon> <polygon class="st10" points="127.5,124.4 127,123.9 121.8,120.7 118.1,113.2 115.1,114.2 118.3,123.4 126.3,129.9 "></polygon> <path class="st7" d="M136.3,113.9l0.5-0.3l-0.8-0.3V113c0,0-4.1-1.6-4.6,1.1c-1.4,1.9-1.4,4.6,0,6.5v0.8l4.3,0.5l0.5-1.6 C136.3,120.4,139.1,115.6,136.3,113.9z"></path> <path class="st6" d="M271.4,119.8l0.3-1.8c0,0,1.6-3.6,0.3-3.8c-1.3-0.2-2.3,3.3-2.3,3.3l0.5,3.7L271.4,119.8z"></path> <polygon class="st10" points="284.4,129.9 273.1,127.6 271.8,119.4 268.4,119.1 268.6,129.8 278.4,134.9 "></polygon> <polygon class="st12" points="284.4,129.9 273.1,127.6 271.8,119.4 268.4,119.1 268.6,129.8 278.4,134.9 "></polygon> <rect x="253.5" y="114.9" class="st3" width="34.8" height="2.7"></rect> <path class="st6" d="M269.2,119.2v-1.8c0,0,1-3.8-0.3-3.8c-1.3,0-1.8,3.6-1.8,3.6l1,3.6L269.2,119.2z"></path> <path class="st7" d="M284,124.4l1.6-0.4c2.2,0,4-1.8,4-4c0-0.3,0-0.5-0.1-0.8l0,0c0-2.9-2.3-5.2-5.2-5.2l0,0l0,0 c-2.9,0-5.2,2.3-5.2,5.2l0,0l0,0c-0.6,2.2,0.6,4.5,2.8,5.1C282.5,124.5,283.3,124.5,284,124.4z"></path> <polygon class="st7" points="274.8,150.2 276.1,164.1 278.4,177.6 282.2,177.6 281.7,164.3 279.7,148.2 "></polygon> <path class="st7" d="M278.9,176.8l-2.6,1.5c0,0-4.1,0.5-3.3,1.8c0.8,1.3,9.7,0.5,9.7,0s-0.3-3.3-0.8-3.3H278.9z"></path> <path class="st7" d="M286.2,149c0,0-0.1,2-1.9,5.1l0.2,9.5l9.2,11.8l-3.3,2.8l-11.3-12.8l-2.8-15.4l3.6-3.6L286.2,149z"></path> <path class="st7" d="M293.1,175.3c0,0,3.1,0.5,2.6,1.8c-0.5,1.3-1.8,7.2-5.1,6.4c0,0-1.5,0-1-1c0.3-0.6,0.7-1.2,1-1.8v-3.3 L293.1,175.3z"></path> <ellipse class="st6" cx="282.3" cy="120.8" rx="3.8" ry="3.8"></ellipse> <polygon class="st6" points="284.1,123.3 284.1,127.7 280,127.7 280.5,123.3 "></polygon> <path class="st10" d="M279,126.2l1.2-0.3l3.9,0.3c0,0,2,2.1,1.8,2.6c-0.2,0.5-1.6,13.1-1.6,13.1l2.3,9l-8.2,0.5l-4.1-0.5l0.8-16.1 c0,0-1.8-4.4,0.5-5.6C276.9,128.3,278.1,127.3,279,126.2z"></path> <polygon class="st10" points="283.6,127.2 272,126.7 269.5,118.7 266.1,119 267.9,129.5 278.4,133.1 "></polygon> <ellipse class="st7" cx="289.8" cy="115.5" rx="2.5" ry="2.5"></ellipse> <path class="st7" d="M287.4,114.1c0-1.4,1.1-2.5,2.5-2.5c0.2,0,0.3,0,0.5,0c-1.2-0.6-2.7-0.1-3.3,1.2s-0.1,2.7,1.2,3.3 c0.2,0.1,0.4,0.2,0.6,0.2C288.1,116,287.4,115.1,287.4,114.1z"></path> <path class="st7" d="M285.3,115.5l-3.3-0.6l-2.6,1.6c-1.3,0.8-2,2.3-1.8,3.8l2.6-0.7l0.6-1.4l0.7,1.1l2.8,4.9l2.8-1.5l1.8-2.8 L285.3,115.5z"></path> </g> <polygon class="st5" points="96,40.6 96.4,40 155.9,73.9 155.6,74.6 "></polygon> <polygon class="st5" points="96,74 155.5,40 155.9,40.6 96.3,74.6 "></polygon> <polygon class="st5" points="234.2,54.9 234.7,54.4 254,73.6 253.5,74.1 "></polygon> <polygon class="st5" points="234.3,73.6 253.6,54.4 254.1,54.9 234.8,74.1 "></polygon> </svg> 